Coordinates
version=1
nRows=17
nColumns=24
inDegrees=yes

Units are S.I. units (second, meters, Newtons, ...)
Angles are in degrees.

endheader
time	pelvis_tilt	pelvis_list	pelvis_rotation	pelvis_tx	pelvis_ty	pelvis_tz	hip_flexion_r	hip_adduction_r	hip_rotation_r	knee_angle_r	ankle_angle_r	subtalar_angle_r	mtp_angle_r	hip_flexion_l	hip_adduction_l	hip_rotation_l	knee_angle_l	ankle_angle_l	subtalar_angle_l	mtp_angle_l	lumbar_extension	lumbar_bending	lumbar_rotation
      3.79000000	      8.13273437	     -6.83108615	    -10.63522201	     -0.76238941	      0.88861941	     -0.22627469	    -22.81563624	      6.38671090	     10.96707168	    -17.65723926	     18.07286495	      3.17806886	      0.00000000	     14.24593727	     -7.31294449	    -12.21539136	     -4.17588754	      3.18121215	     -0.02446306	      0.00000000	    -24.63271839	      5.34913782	     12.60247943
      3.80000000	      8.17055391	     -6.36708496	    -10.79088779	     -0.74782120	      0.88869266	     -0.22715278	    -22.79853254	      5.71115829	     10.60442033	    -19.23777504	     16.99461883	      3.18580480	      0.00000000	     13.88411641	     -6.67624659	    -11.77230093	     -4.77223617	      2.84265662	      0.08786554	      0.00000000	    -24.29314329	      4.87018357	     12.23969707
      3.81000000	      8.29217494	     -5.80917425	    -10.85372142	     -0.73311566	      0.88884704	     -0.22827313	    -22.68447792	      4.91999410	      9.77946389	    -21.06340189	     15.88037704	      3.62996510	      0.00000000	     13.33767561	     -5.82553405	    -10.65330280	     -5.26746220	      1.96490818	     -0.53010528	      0.00000000	    -24.03325213	      4.31881058	     11.81827256
      3.82000000	      8.42695880	     -5.16794444	    -10.80525277	     -0.71839178	      0.88904242	     -0.22950069	    -22.46755749	      4.12782111	      9.00894794	    -23.03126084	     14.30402396	      3.60578242	      0.00000000	     12.83290341	     -4.84661407	     -9.42135684	     -5.89302970	      0.93747602	     -1.10619185	      0.00000000	    -23.77951708	      3.69607553	     11.28980905
      3.83000000	      8.63594597	     -4.42820965	    -10.66170149	     -0.70376461	      0.88937485	     -0.23082788	    -22.14240284	      3.27025892	      8.07958251	    -25.23356657	     12.37929280	      3.49762759	      0.00000000	     12.34493934	     -3.72670685	     -8.15919299	     -6.69868649	     -0.05175422	     -1.66574504	      0.00000000	    -23.62960164	      2.96552680	     10.68904678
      3.84000000	      8.88726295	     -3.61592875	    -10.42415241	     -0.68934530	      0.88981007	     -0.23220508	    -21.66291882	      2.39179902	      7.07023604	    -27.68795368	     10.04910797	      3.17530953	      0.00000000	     11.93172605	     -2.50727862	     -6.86563858	     -7.71550111	     -0.88944697	     -2.34701431	      0.00000000	    -23.57134478	      2.15471675	     10.05055695
      3.85000000	      9.19239926	     -2.72239686	    -10.09857448	     -0.67519698	      0.89035867	     -0.23356357	    -21.01985894	      1.46880838	      5.96003676	    -30.42193933	      7.44136177	      2.84386657	      0.00000000	     11.65789889	     -1.22897402	     -6.08339319	     -9.07749963	     -0.97521400	     -2.28717396	      0.00000000	    -23.62827044	      1.23528436	      9.34461453
      3.86000000	      9.46874677	     -1.86400141	     -9.66302763	     -0.66135446	      0.89090004	     -0.23496247	    -20.18056380	      0.66520922	      4.93502285	    -33.35915342	      4.49790276	      2.24773858	      0.00000000	     11.41349086	      0.06084318	     -4.85336572	    -10.45635368	     -0.89351881	     -2.97981579	      0.00000000	    -23.73553625	      0.38051213	      8.60827030
      3.87000000	      9.81628493	     -0.92744052	     -9.21973894	     -0.64786400	      0.89151411	     -0.23624009	    -19.18215388	     -0.24357396	      3.85507734	    -36.56905471	      1.80440081	      1.85282434	      0.00000000	     11.14818627	      1.40134404	     -4.15610352	    -11.92168021	     -0.28595338	     -3.16631734	      0.00000000	    -24.00296803	     -0.61586020	      7.89957130
      3.88000000	     10.04164699	     -0.08554725	     -8.76377029	     -0.63475515	      0.89200399	     -0.23743786	    -17.89196041	     -0.98879154	      3.03050582	    -39.94620691	     -0.73823992	      1.21715139	      0.00000000	     10.90163564	      2.63134660	     -3.39461871	    -13.21158712	      0.53601362	     -3.57207198	      0.00000000	    -24.23311587	     -1.48442263	      7.21258594
      3.89000000	     10.31710746	      0.77610410	     -8.37202030	     -0.62199442	      0.89255200	     -0.23848629	    -16.49099186	     -1.78864335	      2.34282592	    -43.44122876	     -2.60179582	      0.65204866	      0.00000000	     10.46351024	      3.86684859	     -2.85415238	    -14.24855376	      1.54359510	     -3.83000667	      0.00000000	    -24.59277744	     -2.41763200	      6.57997144
      3.90000000	     10.54569212	      1.58273101	     -8.05457830	     -0.60958176	      0.89311387	     -0.23934519	    -14.92742702	     -2.50412307	      1.94091902	    -46.95116764	     -3.79866104	     -0.01056709	      0.00000000	      9.87977459	      5.02092270	     -2.37026483	    -14.93927564	      2.61725993	     -4.04449946	      0.00000000	    -24.97053135	     -3.32998710	      6.04742707
      3.91000000	     10.72365537	      2.33341023	     -7.80581340	     -0.59748904	      0.89371384	     -0.24008342	    -13.22850520	     -3.14364430	      1.75807410	    -50.38781122	     -4.25018854	     -0.82278588	      0.00000000	      9.17962251	      6.08725139	     -1.98667498	    -15.31856154	      3.62780135	     -4.23837311	      0.00000000	    -25.34136767	     -4.18152651	      5.56445449
      3.92000000	     10.81134704	      3.00654103	     -7.62822634	     -0.58565530	      0.89435982	     -0.24070122	    -11.38187901	     -3.67818539	      1.76721007	    -53.66755706	     -3.98384084	     -1.68661122	      0.00000000	      8.42648121	      7.03978338	     -1.66430040	    -15.43349081	      4.52398899	     -4.48829607	      0.00000000	    -25.62241440	     -4.94646984	      5.13819829
      3.93000000	     10.96223348	      3.55952919	     -7.49281040	     -0.57402145	      0.89536890	     -0.24118717	     -9.63404681	     -4.03739696	      1.96883561	    -56.62413793	     -3.24659117	     -2.74295131	      0.00000000	      7.43545318	      7.85728714	     -1.32268124	    -15.26820855	      5.37171355	     -4.57072021	      0.00000000	    -25.97875664	     -5.59155714	      4.72858155
      3.94000000	     11.04850326	      3.95067922	     -7.33748796	     -0.56255763	      0.89660518	     -0.24162645	     -7.86105532	     -4.16666353	      2.23740988	    -59.22338625	     -2.15131176	     -3.89375310	      0.00000000	      6.41811436	      8.47805249	     -0.94686197	    -14.97048235	      6.14059082	     -4.60214252	      0.00000000	    -26.24857579	     -6.02768644	      4.36254933
      3.95000000	     11.06542182	      4.16005781	     -7.10684214	     -0.55121668	      0.89809298	     -0.24208103	     -6.09052419	     -4.03873417	      2.49379983	    -61.40945799	     -0.89702045	     -5.10756765	      0.00000000	      5.41110219	      8.88152395	     -0.50150695	    -14.61042336	      6.84698437	     -4.56108776	      0.00000000	    -26.41468881	     -6.21271461	      3.97974731
